<svg width="200" height="101" viewBox="0 0 200 101" fill="none" xmlns="http://www.w3.org/2000/svg">
<path opacity="0.9" d="M66.2529 27.8725C63.4941 25.0969 43.4771 27.8538 42.0109 27.0142C40.8148 25.8934 42.5594 6.44951 43.6408 3.59336C44.0227 2.57197 45.2553 2.82919 45.5043 2.90368C47.5 3.50085 68.2493 2.37706 68.2493 2.37706C68.5 2.00085 68.5 2.00085 69.514 1.7005C71.5 1.11224 100.083 1.5581 103 1.5C104.77 1.46439 107.515 2.65067 109.596 2.20463C114.029 1.33504 121.5 0.49912 125.5 0.49912C128.5 0.49912 130.325 0.487951 132.916 1.23385C135.561 1.90478 146.5 0 148.5 0C149 0 151.5 -0.000879779 151.88 0.0587806C153.364 0.291452 160.175 0.551132 161 0.99912C161.327 1.17668 162.025 1.29569 162.484 1.29569C163.5 1.49912 173.517 -0.632771 173.697 0.637878C174.242 4.24742 172.914 19.5533 171.721 23.2697C170.503 27.2353 163.592 22.6625 158.082 24.9901L132.355 24.8514L126.851 26.2645C126.211 24.9582 123.802 28.1855 122.318 25.8484C121.69 24.9189 117.31 24.7165 116.347 25.6779C115.512 26.4201 93.0802 24.1974 90.8013 26.7668C86.6924 24.5234 70.1002 27.4002 66.2529 27.8725Z" fill="#D4A900"/>
<path d="M137.548 7.9387C141.42 9.94401 167.047 1.84408 169.038 2.28075C170.709 3.06975 170.552 22.776 169.461 25.8946C169.077 27.0078 168.513 27.2795 167.121 27.0771C164.901 26.6142 137.72 33.704 137.72 33.704C137.285 33.1774 136.444 35.402 136.156 34.7142C135.322 33.1474 91.2184 44.1428 87.4467 44.9824C85.1579 45.4922 86.8353 43.976 84.1898 44.9749C78.5434 47.0252 65.8922 48.5957 61.6616 50.5092C58.2761 52.0703 57.5262 52.239 54.0916 52.1959C50.5927 52.2427 32.4979 56.7143 30.5785 58.4648C30.1154 58.9352 29.7097 58.879 29.6566 58.4498C29.6454 58.3598 16.7787 60.5638 16.6808 60.2415C16.5311 59.8348 16.117 59.7073 15.7896 60.0728C15.1741 60.6462 1.70864 64.9417 1.3393 63.7329C0.24248 60.307 0.305449 44.8062 1.44984 40.8069C2.59842 36.5564 12.0445 39.2251 18.9276 35.4432L52.2631 28.6739L59.2385 25.7971C60.208 26.9197 62.9781 23.0778 65.1535 24.9931C66.0671 25.7446 71.7624 24.7682 72.904 23.5594C73.9057 22.6017 103.198 18.7786 105.872 15.6244C111.438 16.7395 132.615 9.44174 137.548 7.9387Z" fill="#D4A900"/>
<path d="M37.5314 63.207C33.3987 60.6919 3.11168 64.7775 0.650827 63.9791C-1.17767 62.9296 1.26358 43.3864 2.85564 40.459C3.42224 39.417 4.10356 39.1846 5.66625 39.6588C8.25161 40.444 36.8641 37.8652 40.0678 37.5541C40.5099 38.1407 41.7088 36.0511 41.9676 36.7764C42.3622 37.616 55.4904 36.8982 69.0734 35.815C82.6563 34.7317 96.694 33.328 98.9016 33.15C101.581 32.9326 99.5032 34.2107 102.643 33.5735C109.324 32.2167 124.025 32.2879 129.07 30.8898C133.113 29.7691 133.987 29.7241 137.937 30.1476C141.962 30.5787 163.232 28.3841 165.584 26.8061C166.169 26.4125 166.622 26.5006 166.643 26.9354C166.872 26.9466 181.675 26.4744 181.745 26.7611C181.878 27.1847 182.342 27.3646 182.754 27.0404C183.515 26.54 199.42 23.9593 199.736 25.2056C200.64 28.7683 199.063 44.1697 197.392 48.0304C195.63 52.0972 185.059 48.2722 176.781 51.1883C131.796 54.215 140.231 53.2236 129.489 55.8117C128.481 54.573 124.948 58.0101 122.605 55.8792C121.635 54.9984 114.989 55.3038 113.545 56.3346C112.312 57.2154 78.2061 57.2267 74.8065 59.9779C68.5152 58.1487 43.3793 62.4592 37.5314 63.207Z" fill="#D4A900"/>
<path d="M165.052 34.5811C169.666 36.4477 196.035 25.4935 197.67 25.6322C199.473 26.2 200.52 45.8501 199.522 49.1298C199.17 50.2918 198.586 50.6872 197.085 50.631C195.574 50.5747 173.519 58.0749 165.83 60.3632C165.355 59.8647 164.493 62.1436 164.168 61.4746C163.702 60.7118 139.964 66.5684 139.235 66.739C134.123 67.9309 125.417 70.0562 111.826 72.6855C109.361 73.1616 111.207 71.6904 108.338 72.5787C102.22 74.4715 88.6149 75.3411 84.0065 76.9435C80.302 78.231 79.4962 78.3641 75.8322 78.083C72.6466 77.8393 52.5639 80.6205 50.3688 82.1404C49.8414 82.5584 49.4147 82.459 49.3896 82.0261C49.1335 82.0167 35.5436 82.6764 35.4666 82.3559C35.3393 81.9324 34.9098 81.7562 34.5335 82.0842C33.8354 82.6146 19.2158 85.214 18.9164 83.9658C18.0602 80.4069 19.3962 65.0017 20.8932 61.1447C22.4699 57.0835 32.1832 60.8917 39.7154 57.9138C79.1492 54.5104 74.7046 54.6022 82.7055 52.0834C83.6736 53.2884 86.7416 49.6808 88.9576 51.6673C89.8712 52.4863 95.8967 51.806 97.1642 50.6834C97.6482 50.2543 107.322 49.1017 107.917 49.0173C110.816 48.6107 129.75 46.0356 131.957 43.485C138.123 44.5869 159.059 36.9125 165.052 34.5811Z" fill="#D4A900"/>
<path opacity="0.9" d="M64.1809 99.646C58 100.5 40.1068 99.9814 38.3343 98.99C37.0906 97.8449 39.2968 78.4366 40.4216 75.603C40.8259 74.5872 41.2932 74.4129 42.3368 74.9508C44.4437 76.0359 62.5889 74.3979 65.6681 74.0606C65.9772 74.6547 66.7649 72.5913 66.9509 73.3203C67.7288 75.706 104.295 69.9619 105.698 69.7632C107.522 69.5046 106.158 70.8071 108.28 70.1193C112.785 68.6594 122.866 68.3989 126.246 66.8415C128.952 65.5952 129.544 65.539 132.282 65.837C135.067 66.1406 149.531 63.1495 151.027 61.4684C151.402 61.0467 151.718 61.1198 151.763 61.5509C151.976 61.5527 162.058 60.4376 162.12 60.6888C162.243 61.1048 162.574 61.2604 162.833 60.9174C163.32 60.4002 174.049 57.0136 174.364 58.2374C175.261 61.7252 175.367 77.1247 174.509 81.0379C173.6 85.1872 166.5 84 160.493 85.2097C127.746 90.4722 135.981 88.4706 128.002 91.6473C126.246 92.3463 125 92.1224 123.225 91.9115C121 91.6473 118.5 92 116.954 92.5937C115.362 93.205 110.412 93.4445 104.102 94.0424C97.7907 94.6402 92 96.7467 90.1493 96.7467C86 97.5 72.2154 98.2722 64.1809 99.646Z" fill="#D4A900"/>
</svg>
