<svg width="199" height="96" viewBox="0 0 199 96" fill="none" xmlns="http://www.w3.org/2000/svg">
<path opacity="0.7" d="M65.9217 27.5612C63.1766 24.9145 43.2597 27.5434 41.8009 26.7428C40.6108 25.6741 42.3466 7.13272 43.4226 4.40915C43.8026 3.43518 44.2467 3.28862 45.2768 3.75149C46.9068 4.62181 67.9081 3.24931 67.9081 3.24931C68.1907 3.83012 69.005 1.90004 69.1665 2.60416C69.6648 4.24295 103.699 2.49693 106.602 2.44153C108.363 2.40757 106.978 3.51023 109.048 3.08489C113.459 2.25567 123.09 3.24573 126.425 2.26996C129.097 1.45861 129.673 1.4479 132.251 2.15917C134.883 2.79896 148.844 2.11806 150.431 0.845637C150.818 0.493575 151.117 0.625824 151.121 1.03865C151.122 1.12443 160.968 1.56227 161.015 1.88574C161.095 2.29856 161.396 2.5005 161.671 2.21814C162.181 1.79638 172.65 0.379199 172.828 1.59086C173.371 5.03285 172.05 19.6282 170.863 23.1721C169.65 26.9536 162.774 22.5931 157.292 24.8127L131.693 24.6804L126.217 26.0279C125.58 24.7823 123.183 27.8597 121.707 25.6312C121.082 24.7447 116.723 24.5518 115.765 25.4686C114.934 26.1763 92.6149 24.0567 90.3473 26.5069C86.259 24.3677 69.7497 27.1109 65.9217 27.5612Z" fill="#FEEF38"/>
<path opacity="0.7" d="M136.86 8.55809C140.713 10.4703 166.212 2.74637 168.193 3.16277C169.855 3.91515 169.699 22.7067 168.613 25.6804C168.232 26.742 167.671 27.0011 166.286 26.8081C164.077 26.3667 137.031 33.1274 137.031 33.1274C136.598 32.6252 135.762 34.7465 135.475 34.0906C134.645 32.5966 90.7623 43.0816 87.0094 43.8822C84.7321 44.3683 86.4011 42.9226 83.7688 43.8751C78.1507 45.8302 65.5627 47.3278 61.3533 49.1524C57.9846 50.6411 57.2385 50.8019 53.8211 50.7608C50.3397 50.8055 32.3354 55.0696 30.4256 56.7388C29.9648 57.1873 29.5611 57.1337 29.5082 56.7245C29.4971 56.6387 16.6948 58.7403 16.5974 58.433C16.4484 58.0452 16.0364 57.9236 15.7107 58.2721C15.0982 58.819 1.70005 62.915 1.33256 61.7623C0.241224 58.4955 0.303878 43.7142 1.44254 39.9005C2.58538 35.8474 11.9842 38.3922 18.8329 34.7858L52.0017 28.3307L58.9423 25.5875C59.907 26.658 62.6631 22.9944 64.8277 24.8208C65.7367 25.5375 71.4036 24.6064 72.5395 23.4537C73.5361 22.5405 102.682 18.8948 105.342 15.887C110.881 16.9504 131.952 9.99135 136.86 8.55809Z" fill="#FEEF38"/>
<path opacity="0.7" d="M37.3438 61.2574C33.2318 58.8591 3.09612 62.7551 0.647573 61.9937C-1.17179 60.993 1.25726 42.3569 2.84137 39.5654C3.40513 38.5718 4.08304 38.3502 5.63792 38.8023C8.21035 39.5511 36.6797 37.092 39.8674 36.7954C40.3073 37.3547 41.5003 35.3621 41.7578 36.0537C42.1503 36.8544 55.213 36.1699 68.728 35.1369C82.243 34.104 96.2105 32.7654 98.4071 32.5957C101.073 32.3884 99.0057 33.6072 102.129 32.9996C108.778 31.7057 123.405 31.7736 128.424 30.4404C132.447 29.3717 133.317 29.3288 137.247 29.7327C141.252 30.1437 162.416 28.051 164.756 26.5463C165.338 26.171 165.789 26.255 165.81 26.6696C166.038 26.6803 180.767 26.2299 180.836 26.5034C180.969 26.9072 181.431 27.0788 181.84 26.7696C182.597 26.2925 198.423 23.8316 198.738 25.0201C199.637 28.4174 198.068 43.1039 196.405 46.7854C194.652 50.6634 184.134 47.0159 175.898 49.7967C131.137 52.6829 139.53 51.7375 128.842 54.2055C127.838 53.0242 124.324 56.3018 121.992 54.2698C121.027 53.4299 114.414 53.7212 112.977 54.7041C111.751 55.544 77.8151 55.5547 74.4325 58.1782C68.1726 56.434 43.1624 60.5444 37.3438 61.2574Z" fill="#FEEF38"/>
<path opacity="0.7" d="M164.227 33.9605C168.818 35.7405 195.054 25.2948 196.682 25.427C198.476 25.9685 199.517 44.7065 198.525 47.8339C198.174 48.9419 197.594 49.319 196.1 49.2654C194.597 49.2118 172.651 56.3638 165.001 58.5459C164.528 58.0705 163.67 60.2436 163.347 59.6056C162.884 58.8783 139.264 64.463 138.539 64.6257C133.452 65.7623 124.79 67.7889 111.267 70.2962C108.814 70.7501 110.651 69.3472 107.796 70.1943C101.709 71.9993 88.1718 72.8285 83.5865 74.3565C79.9004 75.5843 79.0986 75.7111 75.453 75.4431C72.2834 75.2107 52.301 77.8628 50.117 79.3122C49.5922 79.7107 49.1676 79.616 49.1426 79.2032C48.8878 79.1942 35.3658 79.8233 35.2893 79.5177C35.1626 79.1138 34.7352 78.9458 34.3608 79.2586C33.6662 79.7643 19.1197 82.2431 18.8218 81.0528C17.9699 77.6591 19.2992 62.969 20.7887 59.2911C22.3575 55.4184 32.0222 59.0499 39.5168 56.2101C78.7534 52.9647 74.331 53.0523 82.2919 50.6504C83.2552 51.7995 86.3079 48.3593 88.5128 50.2537C89.4218 51.0346 95.4172 50.3859 96.6783 49.3154C97.16 48.9062 106.786 47.8071 107.377 47.7267C110.262 47.3389 129.101 44.8834 131.298 42.4511C137.432 43.5019 158.264 36.1837 164.227 33.9605Z" fill="#FEEF38"/>
<path opacity="0.7" d="M63.86 96.0006C61.0482 93.6773 39.9063 96.3205 38.1426 95.3751C36.9051 94.2832 39.1003 75.7758 40.2195 73.0736C40.6218 72.105 41.0867 71.9388 42.1252 72.4517C44.2215 73.4865 62.2759 71.9245 65.3397 71.6028C65.6474 72.1694 66.431 70.2017 66.6162 70.8969C67.3901 73.1719 103.773 67.6944 105.169 67.505C106.985 67.2584 105.627 68.5004 107.739 67.8445C112.221 66.4524 122.252 66.204 125.615 64.7189C128.307 63.5304 128.896 63.4768 131.62 63.761C134.392 64.0505 148.784 61.1982 150.272 59.5952C150.645 59.1931 150.96 59.2628 151.004 59.6738C151.216 59.6756 161.248 58.6123 161.309 58.8517C161.432 59.2485 161.762 59.3968 162.019 59.0698C162.503 58.5765 173.179 55.3472 173.492 56.5142C174.384 59.84 174.49 74.5248 173.637 78.2563C172.732 82.2129 165.176 79.0998 159.69 82.2344C127.107 87.2526 135.301 85.344 127.362 88.3732C126.594 87.2205 124.362 90.6142 122.608 88.6251C121.893 87.8138 117.32 88.257 116.369 89.2756C115.97 89.7045 109.86 90.087 103.581 90.6571C97.3017 91.2272 90.8288 91.8902 89.6985 93.2359C85.8914 91.7133 71.8543 94.6906 63.86 96.0006Z" fill="#FEEF38"/>
</svg>
