<svg width="229" height="40" viewBox="0 0 229 40" fill="none" xmlns="http://www.w3.org/2000/svg">
<path d="M32 36H0V4H32V36ZM15.9307 10C10.4462 10.0002 6.0002 14.4462 6 19.9307C6 25.4153 10.4461 29.8621 15.9307 29.8623C21.4154 29.8623 25.8623 25.4154 25.8623 19.9307C25.8621 14.4461 21.4153 10 15.9307 10Z" fill="#F3F1EC"/>
<path d="M46.304 29H41.728V7.56H51.68C56.32 7.56 59.712 9.704 59.712 14.248C59.712 18.056 57.12 20.008 53.632 20.424C55.328 20.872 56.224 21.928 57.152 23.432L60.544 29H55.264L51.648 22.92C50.816 21.48 49.856 20.968 47.968 20.968H46.304V29ZM51.52 11.624H46.304V17.288H51.52C53.504 17.288 54.912 16.488 54.912 14.472C54.912 12.392 53.504 11.624 51.52 11.624ZM67.4418 34.76C65.0738 34.76 63.0578 33.736 61.9698 32.616L63.7938 28.776C64.7858 29.928 65.9378 30.728 67.3138 30.728C68.5298 30.728 69.2338 30.312 69.7458 28.808L70.0658 27.976H67.2818L62.1938 13.32H67.2498L69.4898 20.712L70.6418 25.96L71.8258 20.712L74.0338 13.32H79.1858L73.5538 29.96C72.3378 33.448 70.3858 34.76 67.4418 34.76ZM85.3645 29.352C82.9325 29.352 81.2365 28.04 81.2365 25.512C81.2365 23.144 82.7405 21.768 85.7165 20.744L90.5165 18.952C90.3565 17.64 89.7485 16.904 88.0205 16.904C86.0365 16.904 84.2125 18.024 83.1245 19.592L80.8205 16.264C82.3885 14.568 84.9805 13 88.3405 13C92.3085 13 94.6125 15.112 94.6125 19.048V24.424C94.6125 25.128 94.8685 25.352 95.4445 25.352H96.3725V29H93.6845C91.9885 29 90.4525 28.232 90.4525 25.992V24.936C89.9405 26.984 88.5645 29.352 85.3645 29.352ZM85.4605 24.84C85.4605 25.576 85.9725 25.992 87.0605 25.992C89.2365 25.992 90.4525 24.904 90.4525 22.984V21.896L87.1245 23.272C85.8765 23.784 85.4605 24.232 85.4605 24.84ZM104.391 29H99.815V13.32H104.391V17.864C104.903 15.304 106.407 13 109.639 13C112.615 13 114.439 14.824 114.439 18.056V29H109.863V19.656C109.863 17.736 109.351 16.552 107.271 16.552C105.095 16.552 104.391 17.768 104.391 20.328V29ZM135.658 29.32C131.53 29.32 127.722 27.976 125.738 24.84L128.746 21.32C130.186 24.008 133.29 25.192 135.85 25.192C137.706 25.192 139.05 24.616 139.05 23.144C139.05 21.48 137.642 20.936 134.794 20.36L132.714 19.912C129.386 19.24 126.25 17.768 126.25 13.704C126.25 9.512 129.866 7.304 134.218 7.304C138.25 7.304 141.482 8.84 143.274 11.4L140.17 14.888C138.762 12.648 136.266 11.432 133.802 11.432C132.17 11.432 130.986 12.136 130.986 13.384C130.986 14.952 132.362 15.528 134.602 16.04L137.034 16.616C141.034 17.544 143.754 19.176 143.754 23.016C143.754 27.112 140.298 29.32 135.658 29.32ZM152.231 29H147.655V7.56H152.231V17.864C152.743 15.304 154.247 13 157.479 13C160.455 13 162.279 14.824 162.279 18.056V29H157.703V19.656C157.703 17.736 157.191 16.552 155.111 16.552C152.935 16.552 152.231 17.768 152.231 20.328V29ZM170.108 29.352C167.676 29.352 165.98 28.04 165.98 25.512C165.98 23.144 167.484 21.768 170.46 20.744L175.26 18.952C175.1 17.64 174.492 16.904 172.764 16.904C170.78 16.904 168.956 18.024 167.868 19.592L165.564 16.264C167.132 14.568 169.724 13 173.084 13C177.052 13 179.356 15.112 179.356 19.048V24.424C179.356 25.128 179.612 25.352 180.188 25.352H181.116V29H178.428C176.732 29 175.196 28.232 175.196 25.992V24.936C174.684 26.984 173.308 29.352 170.108 29.352ZM170.204 24.84C170.204 25.576 170.716 25.992 171.804 25.992C173.98 25.992 175.196 24.904 175.196 22.984V21.896L171.868 23.272C170.62 23.784 170.204 24.232 170.204 24.84ZM189.848 29H185.272V16.808H183.096V13.32H185.272V12.936C185.272 9.544 187.288 7.24 191.032 7.24C193.112 7.24 194.616 8.136 195.352 8.776L193.784 12.04C193.208 11.336 192.376 10.76 191.416 10.76C190.328 10.76 189.848 11.368 189.848 12.392V13.32H193.784V16.808H189.848V29ZM203.823 29.32C198.831 29.32 195.791 25.992 195.791 21.16C195.791 16.328 198.831 13 203.439 13C208.431 13 210.927 16.328 210.927 20.424C210.927 21.096 210.863 21.992 210.767 22.344H200.079C200.367 24.552 201.839 25.608 203.887 25.608C206.095 25.608 207.279 24.648 207.855 23.304L210.639 26.088C209.455 27.784 207.343 29.32 203.823 29.32ZM203.471 16.52C201.519 16.52 200.303 17.608 200.079 19.72H206.799C206.639 17.64 205.519 16.52 203.471 16.52ZM219.414 29H214.838V13.32H219.414V18.248C219.926 15.624 221.462 13 224.47 13C226.774 13 228.054 14.472 228.054 16.936C228.054 18.632 227.542 19.976 227.158 20.584H222.742C223.318 20.008 223.862 18.888 223.862 17.992C223.862 17.096 223.446 16.424 222.454 16.424C220.886 16.424 219.414 18.12 219.414 20.712V29Z" fill="#F3F1EC"/>
</svg>
